<svg width="40" height="40" viewBox="0 0 40 40" fill="none" xmlns="http://www.w3.org/2000/svg">
<path d="M37.875 4.5H33.5V3.875C33.5 2.84125 32.6588 2 31.625 2H19.75C18.7162 2 17.875 2.84125 17.875 3.875V6.375H17.5844L16.52 4.77812C16.4038 4.60437 16.2087 4.5 16 4.5H2.875C1.84125 4.5 1 5.34125 1 6.375V22.625C1 23.6588 1.84125 24.5 2.875 24.5H7.25V27.625C7.25 27.97 7.52938 28.25 7.875 28.25H27.875C28.2206 28.25 28.5 27.97 28.5 27.625V24.5H37.875C38.9087 24.5 39.75 23.6588 39.75 22.625V6.375C39.75 5.34125 38.9087 4.5 37.875 4.5ZM19.125 3.875C19.125 3.53062 19.405 3.25 19.75 3.25H31.625C31.97 3.25 32.25 3.53062 32.25 3.875V4.5H24.75C24.5413 4.5 24.3462 4.60437 24.23 4.77812L23.1656 6.375H19.125V3.875ZM27.25 27H8.5V24.5H9.75V25.75H11V24.5H12.25V25.75H13.5V24.5H14.75V25.75H16V24.5H17.25V25.75H18.5V24.5H19.75V25.75H21V24.5H22.25V25.75H23.5V24.5H24.75V25.75H26V24.5H27.25V27ZM38.5 22.625C38.5 22.9694 38.22 23.25 37.875 23.25H2.875C2.53 23.25 2.25 22.9694 2.25 22.625V6.375C2.25 6.03062 2.53 5.75 2.875 5.75H15.6656L16.73 7.34688C16.8462 7.52063 17.0413 7.625 17.25 7.625H23.5C23.7087 7.625 23.9038 7.52063 24.02 7.34688L25.0844 5.75H37.875C38.22 5.75 38.5 6.03062 38.5 6.375V22.625Z" fill="black"/>
<path d="M11 7C6.86437 7 3.5 10.3644 3.5 14.5C3.5 18.6356 6.86437 22 11 22C15.1356 22 18.5 18.6356 18.5 14.5C18.5 10.3644 15.1356 7 11 7ZM11 13.875C11.345 13.875 11.625 14.1556 11.625 14.5C11.625 14.8444 11.345 15.125 11 15.125C10.655 15.125 10.375 14.8444 10.375 14.5C10.375 14.1556 10.655 13.875 11 13.875ZM11.3269 12.6581C11.315 12.6562 11.3019 12.6563 11.29 12.6544C10.7 12.0606 10.375 11.2744 10.375 10.4375C10.375 9.61875 10.69 8.85187 11.255 8.26312C12.3819 8.30875 13.4306 8.65188 14.3281 9.21938C13.6638 9.42938 13.0538 9.795 12.5469 10.3019C11.8962 10.9519 11.4794 11.77 11.3269 12.6581ZM9.92812 12.9656C9.9175 12.9731 9.90875 12.9825 9.89875 12.99C9.0625 12.9869 8.27688 12.6606 7.685 12.0694C7.10687 11.4913 6.7875 10.7269 6.77 9.9125C7.56063 9.18312 8.53625 8.65437 9.62063 8.40875C9.29813 9.0275 9.125 9.71875 9.125 10.4375C9.125 11.3562 9.40812 12.2306 9.92812 12.9656ZM6.80125 12.9531C7.45125 13.6031 8.27 14.0206 9.15813 14.1731C9.15625 14.185 9.15625 14.1981 9.15438 14.2106C8.56063 14.7994 7.77437 15.125 6.9375 15.125C6.11937 15.125 5.35187 14.81 4.76312 14.245C4.80875 13.1181 5.15187 12.0694 5.71937 11.1725C5.92875 11.8369 6.29437 12.4462 6.80125 12.9531ZM10.6731 16.3419C10.685 16.3437 10.6981 16.3437 10.71 16.3456C11.3 16.9394 11.625 17.7256 11.625 18.5625C11.625 19.3813 11.31 20.1481 10.745 20.7369C9.61812 20.6912 8.56938 20.3481 7.67188 19.7806C8.33625 19.5706 8.94625 19.205 9.45312 18.6981C10.1037 18.0481 10.5206 17.23 10.6731 16.3419ZM12.0719 16.0344C12.0825 16.0269 12.0912 16.0175 12.1012 16.01C12.9375 16.0131 13.7231 16.3394 14.315 16.9306C14.8931 17.5087 15.2125 18.2731 15.23 19.0875C14.4394 19.8169 13.4638 20.3456 12.3794 20.5912C12.7019 19.9725 12.875 19.2812 12.875 18.5625C12.875 17.6438 12.5919 16.7694 12.0719 16.0344ZM15.1988 16.0469C14.5487 15.3969 13.73 14.9794 12.8419 14.8269C12.8438 14.815 12.8437 14.8019 12.8456 14.7894C13.4394 14.2006 14.2256 13.875 15.0625 13.875C15.8806 13.875 16.6481 14.19 17.2369 14.755C17.1912 15.8819 16.8481 16.9306 16.2806 17.8275C16.0712 17.1631 15.7056 16.5537 15.1988 16.0469ZM15.0625 12.625C14.1438 12.625 13.27 12.9088 12.5344 13.4281C12.5269 13.4175 12.5175 13.4088 12.51 13.3988C12.5131 12.5625 12.8387 11.7775 13.4306 11.1856C14.0087 10.6075 14.7731 10.2881 15.5881 10.2706C16.3175 11.0612 16.8462 12.0369 17.0919 13.1213C16.4725 12.7981 15.7806 12.625 15.0625 12.625ZM4.90812 15.8788C5.5275 16.2019 6.21937 16.375 6.9375 16.375C7.85625 16.375 8.73 16.0913 9.46562 15.5719C9.47312 15.5825 9.4825 15.5913 9.49 15.6013C9.48687 16.4375 9.16125 17.2225 8.56938 17.8144C7.99125 18.3925 7.22688 18.7119 6.41188 18.7294C5.6825 17.9394 5.15375 16.9638 4.90812 15.8788Z" fill="black"/>
<path d="M29.75 7C25.6144 7 22.25 10.3644 22.25 14.5C22.25 18.6356 25.6144 22 29.75 22C33.8856 22 37.25 18.6356 37.25 14.5C37.25 10.3644 33.8856 7 29.75 7ZM29.75 13.875C30.095 13.875 30.375 14.1556 30.375 14.5C30.375 14.8444 30.095 15.125 29.75 15.125C29.405 15.125 29.125 14.8444 29.125 14.5C29.125 14.1556 29.405 13.875 29.75 13.875ZM30.0769 12.6581C30.065 12.6562 30.0519 12.6563 30.04 12.6544C29.45 12.0606 29.125 11.2744 29.125 10.4375C29.125 9.61875 29.44 8.85187 30.005 8.26312C31.1319 8.30875 32.1806 8.65188 33.0781 9.21938C32.4138 9.42938 31.8037 9.795 31.2969 10.3019C30.6462 10.9519 30.2294 11.77 30.0769 12.6581ZM28.6781 12.9656C28.6675 12.9731 28.6587 12.9825 28.6487 12.99C27.8125 12.9869 27.0269 12.6606 26.435 12.0694C25.8569 11.4913 25.5375 10.7269 25.52 9.9125C26.3106 9.18312 27.2862 8.65437 28.3706 8.40875C28.0481 9.0275 27.875 9.71875 27.875 10.4375C27.875 11.3562 28.1581 12.2306 28.6781 12.9656ZM25.5513 12.9531C26.2013 13.6031 27.02 14.0206 27.9081 14.1731C27.9063 14.185 27.9063 14.1981 27.9044 14.2106C27.3106 14.7994 26.5244 15.125 25.6875 15.125C24.8694 15.125 24.1019 14.81 23.5131 14.245C23.5587 13.1181 23.9019 12.0694 24.4694 11.1725C24.6787 11.8369 25.0444 12.4462 25.5513 12.9531ZM29.4231 16.3419C29.435 16.3437 29.4481 16.3437 29.46 16.3456C30.05 16.9394 30.375 17.7256 30.375 18.5625C30.375 19.3813 30.06 20.1481 29.495 20.7369C28.3681 20.6912 27.3194 20.3481 26.4219 19.7806C27.0862 19.5706 27.6963 19.205 28.2031 18.6981C28.8538 18.0481 29.2706 17.23 29.4231 16.3419ZM30.8219 16.0344C30.8325 16.0269 30.8413 16.0175 30.8513 16.01C31.6875 16.0131 32.4731 16.3394 33.065 16.9306C33.6431 17.5087 33.9625 18.2731 33.98 19.0875C33.1894 19.8169 32.2138 20.3456 31.1294 20.5912C31.4519 19.9725 31.625 19.2812 31.625 18.5625C31.625 17.6438 31.3419 16.7694 30.8219 16.0344ZM33.9487 16.0469C33.2987 15.3969 32.48 14.9794 31.5919 14.8269C31.5937 14.815 31.5937 14.8019 31.5956 14.7894C32.1894 14.2006 32.9756 13.875 33.8125 13.875C34.6306 13.875 35.3981 14.19 35.9869 14.755C35.9412 15.8819 35.5981 16.9306 35.0306 17.8275C34.8213 17.1631 34.4556 16.5537 33.9487 16.0469ZM33.8125 12.625C32.8938 12.625 32.02 12.9088 31.2844 13.4281C31.2769 13.4175 31.2675 13.4088 31.26 13.3988C31.2631 12.5625 31.5887 11.7775 32.1806 11.1856C32.7587 10.6075 33.5231 10.2881 34.3381 10.2706C35.0675 11.0612 35.5963 12.0369 35.8419 13.1213C35.2225 12.7981 34.5306 12.625 33.8125 12.625ZM23.6581 15.8788C24.2775 16.2019 24.9694 16.375 25.6875 16.375C26.6062 16.375 27.48 16.0913 28.2156 15.5719C28.2231 15.5825 28.2325 15.5913 28.24 15.6013C28.2369 16.4375 27.9113 17.2225 27.3194 17.8144C26.7413 18.3925 25.9769 18.7119 25.1619 18.7294C24.4325 17.9394 23.9037 16.9638 23.6581 15.8788Z" fill="black"/>
<path d="M3.5 7H4.75V8.25H3.5V7Z" fill="black"/>
<path d="M3.5 20.75H4.75V22H3.5V20.75Z" fill="black"/>
<path d="M36 7H37.25V8.25H36V7Z" fill="black"/>
<path d="M36 20.75H37.25V22H36V20.75Z" fill="black"/>
</svg>
