<svg width="40" height="40" viewBox="0 0 40 40" fill="none" xmlns="http://www.w3.org/2000/svg">
<path d="M20 36.6667C29.2047 36.6667 36.6666 29.2048 36.6666 20C36.6666 10.7953 29.2047 3.33334 20 3.33334C10.7952 3.33334 3.33331 10.7953 3.33331 20C3.33331 29.2048 10.7952 36.6667 20 36.6667Z" stroke="black" stroke-width="2" stroke-linecap="round" stroke-linejoin="round"/>
<path d="M15.15 15C15.5419 13.8861 16.3153 12.9468 17.3333 12.3486C18.3513 11.7503 19.5482 11.5316 20.712 11.7312C21.8758 11.9308 22.9314 12.5359 23.6918 13.4392C24.4523 14.3426 24.8684 15.4859 24.8667 16.6667C24.8667 20 19.8667 21.6667 19.8667 21.6667" stroke="black" stroke-width="2" stroke-linecap="round" stroke-linejoin="round"/>
<path d="M20 28.3333H20.0167" stroke="black" stroke-width="2" stroke-linecap="round" stroke-linejoin="round"/>
</svg>
