<svg width="696" height="477" viewBox="0 0 696 477" fill="none" xmlns="http://www.w3.org/2000/svg">
<g clip-path="url(#clip0)">
<path d="M597.522 198.788C607.116 208.849 617.819 210.455 629.632 203.605C624.675 195.66 623.494 187.019 624.815 177.917H601.804C602.823 185.916 602.549 193.364 597.522 198.788Z" fill="#FFB8B8"/>
<path d="M635.519 462.083L647.827 455.662L653.179 387.697V351.842L624.815 351.307L632.843 387.162L635.519 462.083Z" fill="#FFB8B8"/>
<path d="M599.839 462.083L587.531 455.662L582.18 387.697V351.842L610.543 351.307L602.515 387.162L599.839 462.083Z" fill="#FFB8B8"/>
<path d="M580.933 359.334L610.901 356.659L615.718 329.366L621.604 356.123L654.249 353.983C654.962 340.98 653.15 327.597 648.897 313.846L577.187 312.241L580.933 359.334Z" fill="#2F2E41"/>
<path d="M549.784 256.835L513.735 229.076C513.361 228.788 512.949 228.551 512.512 228.373L507.272 226.241C503.064 224.529 495.048 218.834 498.958 212.97C502.11 208.242 514.174 216.712 515.659 219.85C516.128 220.837 516.897 221.651 517.857 222.175L525.182 226.189C525.361 226.287 525.544 226.374 525.733 226.45L553.624 237.755C554.397 238.069 555.234 238.193 556.065 238.118C556.896 238.043 557.697 237.771 558.401 237.324L563.458 234.118C564.177 233.662 564.997 233.388 565.846 233.32C566.696 233.251 567.549 233.391 568.332 233.727C569.115 234.063 569.804 234.584 570.34 235.246C570.876 235.908 571.243 236.691 571.409 237.527L573.08 245.962C573.32 247.176 573.124 248.436 572.524 249.52C571.924 250.603 570.961 251.439 569.804 251.88L554.85 257.58C554.013 257.899 553.107 257.998 552.22 257.868C551.333 257.737 550.494 257.382 549.784 256.835Z" fill="#FFB8B8"/>
<path d="M556.48 236.61C566.461 233.933 565.413 247.877 573.027 254.733L587.999 242.913L579.327 200.929C577.001 201.594 574.86 202.79 573.076 204.424C571.291 206.059 569.911 208.085 569.045 210.345L556.48 236.61Z" fill="#9776FF"/>
<path d="M575.046 314.917H650.503C638.291 282.008 639.48 248.161 649.878 213.67C650.053 213.098 650.022 212.482 649.791 211.93C649.561 211.378 649.144 210.923 648.614 210.645L626.956 199.323C618.454 204.855 609.317 203.155 599.663 195.577L576.117 201.999C582.527 240.497 582.709 278.205 575.046 314.917Z" fill="#9776FF"/>
<path d="M593.914 474.653L562.468 475.986C561.099 476.044 559.756 475.593 558.699 474.721C557.642 473.849 556.946 472.616 556.743 471.261C556.538 469.892 556.852 468.496 557.623 467.347C558.394 466.197 559.567 465.377 560.911 465.048L566.245 463.74L587.208 451.59C590.314 454.806 594.591 457.525 599.819 459.841L599.88 468.384C599.892 469.998 599.276 471.554 598.163 472.723C597.05 473.893 595.527 474.584 593.914 474.653Z" fill="#2F2E41"/>
<path d="M695.688 476.095H0.25293V474.377H696L695.688 476.095Z" fill="#3F3D56"/>
<path d="M641.183 474.175L672.629 475.508C673.998 475.566 675.34 475.116 676.397 474.244C677.454 473.371 678.151 472.139 678.354 470.783C678.559 469.414 678.245 468.018 677.474 466.869C676.703 465.72 675.53 464.9 674.186 464.57L668.852 463.263L647.889 451.112C644.783 454.328 640.506 457.048 635.278 459.363L635.217 467.906C635.205 469.521 635.821 471.076 636.934 472.246C638.047 473.415 639.57 474.107 641.183 474.175Z" fill="#2F2E41"/>
<path d="M610.901 187.55C620.359 187.55 628.026 179.883 628.026 170.425C628.026 160.967 620.359 153.3 610.901 153.3C601.443 153.3 593.776 160.967 593.776 170.425C593.776 179.883 601.443 187.55 610.901 187.55Z" fill="#FFB8B8"/>
<path d="M637.659 309.565L632.001 320.566C631.502 321.536 631.214 322.602 631.156 323.692C631.098 324.782 631.271 325.872 631.664 326.89C632.058 327.909 632.662 328.832 633.438 329.601C634.213 330.369 635.143 330.964 636.165 331.347C637.247 331.753 638.406 331.911 639.557 331.81C640.707 331.709 641.821 331.352 642.816 330.764C643.811 330.177 644.661 329.374 645.305 328.414C645.949 327.455 646.369 326.363 646.536 325.22L648.897 309.03L657.46 268.358L656.925 248.022H639.8C645.641 263.148 642.743 285.457 637.659 309.565Z" fill="#FFB8B8"/>
<path d="M637.124 250.163H660.136L656.795 224.926C656.342 221.504 655.039 218.249 653.006 215.459C650.972 212.67 648.271 210.434 645.151 208.956L637.124 250.163Z" fill="#9776FF"/>
<path d="M629.108 160.992C629.45 158.705 629.306 156.371 628.686 154.142C628.066 151.914 626.983 149.841 625.508 148.059C622.587 144.602 617.689 141.772 609.564 143.107C591.837 146.02 586.725 160.778 588.462 164.489C590.198 168.2 595.522 176.804 595.522 176.804C595.522 176.804 591.615 168.287 595.855 166.554C600.096 164.82 616.506 157.991 622.234 161.068C623.855 161.882 625.232 163.111 626.223 164.63C627.215 166.149 627.787 167.904 627.88 169.716L629.108 160.992Z" fill="#2F2E41"/>
<path d="M336.002 89.7215L329.117 93.2151C321.186 77.5993 310.679 63.4322 298.038 51.3094C235.96 -8.37047 136.903 -6.4193 77.2231 55.6589C17.5432 117.737 19.4944 216.794 81.5726 276.474C93.3878 287.856 106.924 297.303 121.681 304.468L118.313 311.416C94.9214 300.057 74.5679 283.296 58.9344 262.517C43.3009 241.737 32.8362 217.536 28.405 191.913C23.9737 166.289 25.7032 139.979 33.4503 115.156C41.1975 90.3336 54.7401 67.7105 72.9591 49.1562C91.1781 30.602 113.551 16.6492 138.228 8.45075C162.906 0.252286 189.18 -1.95653 214.88 2.00679C240.579 5.97012 264.967 15.9918 286.028 31.2439C307.089 46.4959 324.219 66.5405 336.002 89.7215Z" fill="#E6E6E6"/>
<path d="M103.062 233.36C92.9344 243.894 87.4065 258.02 87.6943 272.631C87.9821 287.241 94.0619 301.138 104.596 311.266C115.131 321.393 129.257 326.921 143.867 326.633C158.477 326.345 172.375 320.265 182.502 309.731L191.988 299.864L112.547 223.493L103.062 233.36Z" fill="#E6E6E6"/>
<path d="M107.225 217.889C104.97 220.24 103.741 223.388 103.805 226.644C103.869 229.9 105.222 232.997 107.567 235.257L180.429 305.304C182.778 307.562 185.927 308.794 189.184 308.73C192.441 308.666 195.539 307.311 197.797 304.962C200.054 302.614 201.287 299.465 201.223 296.208C201.158 292.95 199.803 289.852 197.455 287.595L124.592 217.547C122.242 215.293 119.094 214.063 115.838 214.127C112.582 214.191 109.484 215.544 107.225 217.889Z" fill="#535461"/>
<path d="M325.759 160.717L335.244 150.851C345.372 140.316 350.899 126.19 350.612 111.58C350.324 96.97 344.244 83.0725 333.71 72.9451C328.493 67.9305 322.341 63.9924 315.603 61.3556C308.865 58.7189 301.673 57.4351 294.439 57.5776C279.829 57.8654 265.931 63.9452 255.804 74.4796L246.318 84.3464L325.759 160.717Z" fill="#E6E6E6"/>
<path d="M240.509 79.2485C238.255 81.5987 237.025 84.7471 237.089 88.003C237.153 91.2589 238.506 94.3564 240.851 96.616L313.714 166.663C316.063 168.918 319.211 170.148 322.466 170.083C325.722 170.018 328.818 168.663 331.075 166.315C333.332 163.968 334.564 160.821 334.501 157.565C334.438 154.309 333.085 151.212 330.739 148.954L257.877 78.9064C255.527 76.6522 252.378 75.4222 249.122 75.4863C245.867 75.5505 242.769 76.9035 240.509 79.2485Z" fill="#535461"/>
<path d="M271.246 241.127V235.435C271.246 235.435 296.08 221.466 316.259 235.435V240.609L271.246 241.127Z" fill="#535461"/>
<path d="M497.345 241.127V235.435C497.345 235.435 522.179 221.466 542.358 235.435V240.609L497.345 241.127Z" fill="#535461"/>
<path d="M345.75 240.609H321.432C321.432 240.609 315.224 233.366 294.528 233.883C273.832 234.4 269.693 240.609 269.693 240.609C269.693 240.609 249.256 254.32 244.6 271.394C244.6 271.394 219.507 346.674 218.989 405.656C218.472 464.639 241.237 472.917 253.137 474.469C265.037 476.021 286.25 473.952 306.945 421.695L315.741 391.169C315.741 391.169 317.293 373.061 335.919 384.443C354.545 395.826 371.102 378.235 371.102 378.235H440.949C440.949 378.235 464.232 392.722 485.445 381.339C485.445 381.339 493.723 370.474 501.484 407.209C501.484 407.209 525.284 482.747 562.018 474.987C598.753 467.226 594.614 404.104 594.614 404.104C594.614 404.104 589.699 307.611 569.521 273.463C569.521 273.463 550.118 238.022 537.184 236.47C537.184 236.47 509.245 231.296 498.38 235.953L492.171 241.127L345.75 240.609Z" fill="#E6E6E6"/>
<path d="M289.354 336.326C314.214 336.326 334.367 316.173 334.367 291.313C334.367 266.453 314.214 246.3 289.354 246.3C264.494 246.3 244.341 266.453 244.341 291.313C244.341 316.173 264.494 336.326 289.354 336.326Z" fill="#535461"/>
<path d="M524.249 336.326C549.109 336.326 569.262 316.173 569.262 291.313C569.262 266.453 549.109 246.3 524.249 246.3C499.389 246.3 479.236 266.453 479.236 291.313C479.236 316.173 499.389 336.326 524.249 336.326Z" fill="#535461"/>
<path d="M297.198 281.276L291.196 286.584C290.688 287.032 290.034 287.279 289.357 287.279C288.679 287.279 288.025 287.032 287.517 286.584L281.505 281.276C281.211 281.017 280.975 280.699 280.813 280.342C280.651 279.985 280.566 279.598 280.563 279.206V264.601C280.565 263.863 280.859 263.157 281.381 262.636C281.902 262.115 282.61 261.822 283.347 261.822H295.376C296.113 261.821 296.82 262.112 297.342 262.632C297.864 263.152 298.158 263.858 298.16 264.595V279.196C298.157 279.591 298.069 279.981 297.903 280.34C297.737 280.699 297.497 281.018 297.198 281.276Z" fill="#E6E6E6"/>
<path d="M297.198 301.346L291.196 296.042C290.688 295.595 290.034 295.348 289.357 295.348C288.679 295.348 288.025 295.595 287.517 296.042L281.505 301.351C281.211 301.61 280.975 301.928 280.813 302.285C280.651 302.641 280.566 303.028 280.563 303.42V318.011C280.562 318.748 280.854 319.455 281.374 319.977C281.894 320.499 282.6 320.793 283.337 320.794H295.376C296.113 320.796 296.82 320.504 297.342 319.984C297.864 319.464 298.159 318.758 298.16 318.021V303.425C298.157 303.03 298.069 302.64 297.903 302.282C297.737 301.923 297.497 301.604 297.198 301.346Z" fill="#E6E6E6"/>
<path d="M279.322 299.167L284.63 293.155C285.078 292.647 285.324 291.993 285.324 291.316C285.324 290.639 285.078 289.985 284.63 289.477L279.322 283.465C279.062 283.171 278.744 282.935 278.387 282.773C278.031 282.61 277.644 282.525 277.252 282.523H262.662C261.924 282.524 261.218 282.818 260.697 283.34C260.176 283.862 259.883 284.569 259.883 285.306V297.336C259.882 298.073 260.173 298.78 260.693 299.302C261.214 299.824 261.92 300.118 262.657 300.119H277.257C277.649 300.115 278.036 300.028 278.391 299.864C278.747 299.7 279.064 299.463 279.322 299.167Z" fill="#E6E6E6"/>
<path d="M299.392 299.167L294.093 293.15C293.645 292.642 293.397 291.988 293.397 291.311C293.397 290.633 293.645 289.979 294.093 289.471L299.402 283.459C299.661 283.165 299.979 282.929 300.336 282.767C300.693 282.605 301.08 282.52 301.471 282.518H316.062C316.799 282.516 317.506 282.808 318.028 283.328C318.55 283.848 318.844 284.554 318.845 285.291V297.331C318.847 298.068 318.555 298.775 318.035 299.297C317.515 299.819 316.809 300.113 316.072 300.114H301.477C301.082 300.114 300.691 300.029 300.332 299.866C299.972 299.702 299.652 299.464 299.392 299.167Z" fill="#E6E6E6"/>
<path d="M350.406 373.061C368.408 373.061 383.002 358.467 383.002 340.465C383.002 322.463 368.408 307.87 350.406 307.87C332.404 307.87 317.811 322.463 317.811 340.465C317.811 358.467 332.404 373.061 350.406 373.061Z" fill="#535461"/>
<path d="M463.197 373.061C481.199 373.061 495.793 358.467 495.793 340.465C495.793 322.463 481.199 307.87 463.197 307.87C445.195 307.87 430.602 322.463 430.602 340.465C430.602 358.467 445.195 373.061 463.197 373.061Z" fill="#535461"/>
<path d="M350.406 362.196C362.408 362.196 372.137 352.467 372.137 340.465C372.137 328.464 362.408 318.735 350.406 318.735C338.405 318.735 328.676 328.464 328.676 340.465C328.676 352.467 338.405 362.196 350.406 362.196Z" fill="#E6E6E6"/>
<path d="M350.406 355.47C347.439 355.47 344.538 354.59 342.07 352.941C339.603 351.292 337.68 348.949 336.544 346.207C335.408 343.465 335.111 340.449 335.69 337.538C336.269 334.628 337.698 331.954 339.797 329.856C341.895 327.757 344.568 326.328 347.479 325.749C350.39 325.17 353.406 325.467 356.148 326.603C358.89 327.739 361.233 329.662 362.882 332.129C364.531 334.597 365.41 337.498 365.41 340.465C365.406 344.443 363.824 348.257 361.011 351.07C358.198 353.883 354.384 355.465 350.406 355.47ZM350.406 326.496C347.643 326.496 344.942 327.315 342.645 328.85C340.348 330.385 338.557 332.567 337.5 335.119C336.443 337.672 336.166 340.481 336.705 343.191C337.244 345.9 338.575 348.39 340.528 350.343C342.482 352.297 344.971 353.627 347.681 354.166C350.391 354.705 353.2 354.429 355.752 353.371C358.305 352.314 360.486 350.524 362.021 348.226C363.556 345.929 364.376 343.228 364.376 340.465C364.372 336.762 362.898 333.211 360.28 330.592C357.661 327.973 354.11 326.5 350.406 326.496Z" fill="#535461"/>
<path d="M463.197 362.196C475.199 362.196 484.928 352.467 484.928 340.465C484.928 328.464 475.199 318.735 463.197 318.735C451.196 318.735 441.467 328.464 441.467 340.465C441.467 352.467 451.196 362.196 463.197 362.196Z" fill="#E6E6E6"/>
<path d="M463.197 355.47C460.23 355.47 457.329 354.59 454.861 352.941C452.394 351.292 450.471 348.949 449.335 346.207C448.199 343.465 447.902 340.449 448.481 337.538C449.06 334.628 450.489 331.954 452.588 329.856C454.686 327.757 457.359 326.328 460.27 325.749C463.181 325.17 466.197 325.467 468.939 326.603C471.681 327.739 474.024 329.662 475.673 332.129C477.322 334.597 478.202 337.498 478.202 340.465C478.197 344.443 476.615 348.257 473.802 351.07C470.989 353.883 467.175 355.465 463.197 355.47ZM463.197 326.496C460.434 326.496 457.733 327.315 455.436 328.85C453.139 330.385 451.348 332.567 450.291 335.119C449.234 337.672 448.957 340.481 449.496 343.191C450.035 345.9 451.366 348.39 453.319 350.343C455.273 352.297 457.762 353.627 460.472 354.166C463.182 354.705 465.99 354.429 468.543 353.371C471.096 352.314 473.277 350.524 474.812 348.226C476.347 345.929 477.167 343.228 477.167 340.465C477.162 336.762 475.689 333.211 473.07 330.592C470.452 327.973 466.901 326.5 463.197 326.496Z" fill="#535461"/>
<path d="M407.836 353.4C412.98 353.4 417.149 349.23 417.149 344.087C417.149 338.944 412.98 334.774 407.836 334.774C402.693 334.774 398.523 338.944 398.523 344.087C398.523 349.23 402.693 353.4 407.836 353.4Z" fill="#535461"/>
<path d="M393.603 315.036C394.726 315.036 395.636 314.125 395.636 313.002C395.636 311.879 394.726 310.969 393.603 310.969C392.48 310.969 391.569 311.879 391.569 313.002C391.569 314.125 392.48 315.036 393.603 315.036Z" fill="#535461"/>
<path d="M401.219 315.036C402.342 315.036 403.252 314.125 403.252 313.002C403.252 311.879 402.342 310.969 401.219 310.969C400.096 310.969 399.186 311.879 399.186 313.002C399.186 314.125 400.096 315.036 401.219 315.036Z" fill="#535461"/>
<path d="M400.205 324.685C401.328 324.685 402.238 323.775 402.238 322.652C402.238 321.529 401.328 320.618 400.205 320.618C399.082 320.618 398.171 321.529 398.171 322.652C398.171 323.775 399.082 324.685 400.205 324.685Z" fill="#535461"/>
<path d="M407.319 324.944C408.462 324.944 409.388 324.017 409.388 322.874C409.388 321.731 408.462 320.805 407.319 320.805C406.176 320.805 405.249 321.731 405.249 322.874C405.249 324.017 406.176 324.944 407.319 324.944Z" fill="#535461"/>
<path d="M414.422 324.685C415.545 324.685 416.456 323.775 416.456 322.652C416.456 321.529 415.545 320.618 414.422 320.618C413.3 320.618 412.389 321.529 412.389 322.652C412.389 323.775 413.3 324.685 414.422 324.685Z" fill="#535461"/>
<path d="M397.157 320.116C398.28 320.116 399.191 319.206 399.191 318.083C399.191 316.96 398.28 316.05 397.157 316.05C396.034 316.05 395.124 316.96 395.124 318.083C395.124 319.206 396.034 320.116 397.157 320.116Z" fill="#535461"/>
<path d="M403.697 320.287C404.84 320.287 405.767 319.361 405.767 318.218C405.767 317.075 404.84 316.148 403.697 316.148C402.554 316.148 401.627 317.075 401.627 318.218C401.627 319.361 402.554 320.287 403.697 320.287Z" fill="#535461"/>
<path d="M410.423 320.287C411.566 320.287 412.493 319.361 412.493 318.218C412.493 317.075 411.566 316.148 410.423 316.148C409.28 316.148 408.354 317.075 408.354 318.218C408.354 319.361 409.28 320.287 410.423 320.287Z" fill="#535461"/>
<path d="M417.47 320.116C418.593 320.116 419.503 319.206 419.503 318.083C419.503 316.96 418.593 316.05 417.47 316.05C416.347 316.05 415.437 316.96 415.437 318.083C415.437 319.206 416.347 320.116 417.47 320.116Z" fill="#535461"/>
<path d="M407.319 315.113C408.462 315.113 409.388 314.187 409.388 313.044C409.388 311.901 408.462 310.974 407.319 310.974C406.176 310.974 405.249 311.901 405.249 313.044C405.249 314.187 406.176 315.113 407.319 315.113Z" fill="#535461"/>
<path d="M414.562 315.113C415.705 315.113 416.632 314.187 416.632 313.044C416.632 311.901 415.705 310.974 414.562 310.974C413.419 310.974 412.493 311.901 412.493 313.044C412.493 314.187 413.419 315.113 414.562 315.113Z" fill="#535461"/>
<path d="M420.517 315.036C421.64 315.036 422.551 314.125 422.551 313.002C422.551 311.879 421.64 310.969 420.517 310.969C419.394 310.969 418.484 311.879 418.484 313.002C418.484 314.125 419.394 315.036 420.517 315.036Z" fill="#535461"/>
<path d="M330.486 245.019C329.529 245.02 328.612 245.401 327.935 246.077C327.258 246.754 326.878 247.672 326.876 248.629V259.494C326.878 260.451 327.258 261.369 327.935 262.045C328.612 262.722 329.529 263.103 330.486 263.104H333.073C334.03 263.103 334.948 262.722 335.625 262.045C336.301 261.369 336.682 260.451 336.683 259.494V248.629C336.682 247.672 336.301 246.754 335.625 246.077C334.948 245.401 334.03 245.02 333.073 245.019H330.486Z" fill="#535461"/>
<path d="M481.564 245.019C480.607 245.02 479.689 245.4 479.012 246.077C478.336 246.754 477.955 247.672 477.954 248.629V259.494C477.955 260.451 478.336 261.369 479.012 262.045C479.689 262.722 480.607 263.103 481.564 263.104H484.151C485.108 263.103 486.026 262.722 486.702 262.045C487.379 261.369 487.76 260.451 487.761 259.494V248.629C487.76 247.672 487.379 246.754 486.702 246.077C486.026 245.4 485.108 245.02 484.151 245.019H481.564Z" fill="#535461"/>
<path d="M524.766 276.309C531.624 276.309 537.184 270.75 537.184 263.892C537.184 257.034 531.624 251.474 524.766 251.474C517.909 251.474 512.349 257.034 512.349 263.892C512.349 270.75 517.909 276.309 524.766 276.309Z" fill="#E6E6E6"/>
<path d="M498.379 302.696C505.237 302.696 510.797 297.136 510.797 290.279C510.797 283.421 505.237 277.861 498.379 277.861C491.521 277.861 485.962 283.421 485.962 290.279C485.962 297.136 491.521 302.696 498.379 302.696Z" fill="#E6E6E6"/>
<path d="M552.188 301.144C559.046 301.144 564.605 295.584 564.605 288.726C564.605 281.869 559.046 276.309 552.188 276.309C545.33 276.309 539.771 281.869 539.771 288.726C539.771 295.584 545.33 301.144 552.188 301.144Z" fill="#E6E6E6"/>
<path d="M526.836 328.565C533.694 328.565 539.253 323.006 539.253 316.148C539.253 309.29 533.694 303.731 526.836 303.731C519.978 303.731 514.418 309.29 514.418 316.148C514.418 323.006 519.978 328.565 526.836 328.565Z" fill="#E6E6E6"/>
<path d="M353.898 237.775C351.124 237.779 348.464 238.882 346.502 240.844C344.54 242.806 343.436 245.466 343.433 248.241V294.547C343.436 297.321 344.54 299.981 346.502 301.943C348.464 303.905 351.124 305.009 353.898 305.012H460.222C462.996 305.009 465.656 303.905 467.618 301.943C469.58 299.981 470.684 297.321 470.687 294.547V248.241C470.684 245.466 469.58 242.806 467.618 240.844C465.656 238.882 462.996 237.779 460.222 237.775H353.898Z" fill="#535461"/>
<path d="M533.202 269.583H516.363L524.492 255.648L533.202 269.583ZM518.165 268.548H531.335L524.523 257.649L518.165 268.548Z" fill="#535461"/>
<path d="M505.364 296.487H491.395V284.07H505.364V296.487ZM492.429 295.452H504.329V285.105H492.429V295.452Z" fill="#535461"/>
<path d="M552.188 296.487C550.653 296.487 549.153 296.032 547.876 295.179C546.6 294.326 545.605 293.114 545.018 291.696C544.431 290.278 544.277 288.718 544.576 287.212C544.876 285.707 545.615 284.324 546.7 283.239C547.786 282.153 549.169 281.414 550.674 281.115C552.179 280.815 553.74 280.969 555.158 281.556C556.576 282.144 557.788 283.138 558.641 284.415C559.494 285.691 559.949 287.191 559.949 288.726C559.947 290.784 559.128 292.757 557.673 294.212C556.218 295.666 554.246 296.485 552.188 296.487ZM552.188 282C550.858 282 549.557 282.395 548.451 283.134C547.345 283.873 546.483 284.923 545.974 286.152C545.465 287.381 545.332 288.734 545.591 290.039C545.851 291.343 546.491 292.542 547.432 293.482C548.373 294.423 549.571 295.064 550.876 295.323C552.181 295.583 553.533 295.45 554.762 294.94C555.991 294.431 557.042 293.569 557.781 292.463C558.52 291.357 558.914 290.057 558.914 288.726C558.912 286.943 558.203 285.233 556.942 283.973C555.681 282.712 553.971 282.002 552.188 282Z" fill="#535461"/>
<path d="M521.252 309.962L520.52 310.693L532.161 322.334L532.893 321.603L521.252 309.962Z" fill="#535461"/>
<path d="M532.427 309.953L520.529 321.337L521.244 322.085L533.143 310.7L532.427 309.953Z" fill="#535461"/>
<path d="M109.98 119.548C81.7301 127.336 50.7957 133.199 39.7114 124.103C45.7802 114 49.2805 104.042 49.5774 94.2649C49.6443 89.7915 51.4562 85.5211 54.6266 82.3644C56.7256 80.3366 59.2591 78.814 62.0347 77.912C64.8102 77.0101 67.7549 76.7527 70.6449 77.1593L77.9763 78.1881C78.2231 78.2227 78.4686 78.262 78.7128 78.306C82.2318 78.9727 85.4536 80.7246 87.9261 83.3159C90.3985 85.9071 91.9974 89.2076 92.4983 92.754C94.043 103.356 99.2372 112.534 109.98 119.548Z" fill="#2F2E41"/>
<path d="M137.229 220.129L148.212 222.393C149.05 222.566 149.84 222.924 150.524 223.44C151.207 223.956 151.767 224.618 152.163 225.378C152.558 226.137 152.78 226.976 152.811 227.831C152.842 228.687 152.683 229.54 152.344 230.326C152.016 231.086 151.529 231.767 150.915 232.322C150.301 232.877 149.575 233.293 148.785 233.543C147.996 233.792 147.163 233.869 146.341 233.768C145.52 233.666 144.73 233.39 144.025 232.956L127.226 222.624L98.6919 155.546L113.471 151.271L137.229 220.129Z" fill="#A0616A"/>
<path d="M58.9952 308.147L50.6796 310.565L44.3853 297.566L50.786 294.231L58.9952 308.147Z" fill="#A0616A"/>
<path d="M54.7701 363.844L44.5674 361.143L46.1646 343.614L54.9451 344.155L54.7701 363.844Z" fill="#A0616A"/>
<path d="M55.8339 295.995L45.0278 303.107L3.46628 256.096C2.56477 255.076 1.89905 253.87 1.51649 252.564C1.13393 251.258 1.04392 249.883 1.25287 248.538C1.46182 247.193 1.96459 245.911 2.72541 244.782C3.48624 243.654 4.48643 242.707 5.65482 242.008L57.4301 211.071L65.3602 233.852L38.4006 259.151L55.8339 295.995Z" fill="#2F2E41"/>
<path d="M64.9345 320.604C64.9074 320.639 64.8803 320.674 64.853 320.709C64.1624 324.753 62.9494 328.441 60.2406 331.112C59.4375 332.923 57.9954 334.375 56.1898 335.19C54.3841 336.006 52.3413 336.128 50.4515 335.533C48.6692 334.972 47.1373 333.809 46.1177 332.243C45.0981 330.677 44.6543 328.806 44.862 326.949L46.8812 308.9C51.7251 307.786 55.4194 305.032 57.2892 299.672L61.9968 302.879C63.3899 303.82 64.5766 305.035 65.4845 306.45C66.3923 307.866 67.0023 309.451 67.2772 311.109C67.5521 312.768 67.4862 314.465 67.0834 316.098C66.6806 317.73 65.9494 319.263 64.9345 320.604Z" fill="#2F2E41"/>
<path d="M70.0571 115.682C79.2429 115.682 86.6894 108.236 86.6894 99.0502C86.6894 89.8644 79.2429 82.4178 70.0571 82.4178C60.8713 82.4178 53.4248 89.8644 53.4248 99.0502C53.4248 108.236 60.8713 115.682 70.0571 115.682Z" fill="#A0616A"/>
<path d="M84.4606 125.639L58.2399 147.354L56.1978 138.416L60.7744 131.439C62.0445 124.594 61.2245 117.046 59.042 109.04L76.1492 109.056C76.8877 115.526 79.4066 121.17 84.4606 125.639Z" fill="#A0616A"/>
<path d="M91.8431 182.601L56.445 193.384L53.691 180.794C47.0573 171.887 44.1736 163.757 48.5136 157.125L46.3296 147.14C52.5946 142.207 57.5213 137.16 60.2265 131.924L82.0057 123.414L98.0163 124.399L102.744 140.243L91.8431 182.601Z" fill="#9776FF"/>
<path d="M116.991 153.043C109.446 152.963 102.061 155.226 95.8555 159.519L98.0164 124.399C100.21 124.692 102.289 125.551 104.05 126.891C105.811 128.231 107.192 130.007 108.058 132.043L116.991 153.043Z" fill="#9776FF"/>
<path d="M55.7231 348.35L44.4878 345.585L46.1415 250.119L61.2283 233.597L57.8512 212.652L55.6659 189.189L92.5181 180.051C104.974 202.668 112.503 223.231 101.513 236.076L55.7231 348.35Z" fill="#2F2E41"/>
<path d="M53.1426 380.582C53.0922 380.602 53.0417 380.622 52.9912 380.641C49.7288 384.429 46.1444 387.518 41.6377 388.604C39.6609 389.991 37.2428 390.6 34.8449 390.317C32.4471 390.034 30.2376 388.877 28.6384 387.068C27.1301 385.362 26.2615 383.185 26.1809 380.91C26.1004 378.634 26.8131 376.401 28.197 374.593L41.6482 357.016C47.4055 358.898 52.9939 358.344 58.3143 353.923L61.2145 360.229C62.0775 362.088 62.5528 364.102 62.6114 366.15C62.67 368.199 62.3107 370.237 61.5553 372.142C60.7999 374.046 59.6644 375.777 58.218 377.228C56.7716 378.679 55.0447 379.821 53.1426 380.582Z" fill="#2F2E41"/>
<path d="M12.1 231.611L2.2384 240.055C1.42005 240.755 0.791826 241.651 0.41197 242.66C0.0321137 243.668 -0.0870835 244.755 0.0654255 245.822C0.217934 246.888 0.637217 247.899 1.2844 248.76C1.93159 249.622 2.78573 250.306 3.76766 250.749C5.24586 251.416 6.92226 251.497 8.45795 250.976C9.99364 250.454 11.2741 249.369 12.0404 247.94L19.1717 234.639L51.8758 174.958L39.5758 172.646L12.1 231.611Z" fill="#A0616A"/>
<path d="M53.8463 176.634C47.4585 174.706 41.475 173.571 36.8345 175.069C37.8072 163.032 39.8121 152.279 46.3293 147.14L55.5941 148.228L53.8463 176.634Z" fill="#9776FF"/>
<path d="M88.6247 95.1935L53.0513 93.0047L53.489 85.89C65.9069 77.5168 77.7647 78.2464 89.0624 88.0788L88.6247 95.1935Z" fill="#2F2E41"/>
</g>
<defs>
<clipPath id="clip0">
<rect width="696" height="476.096" fill="white"/>
</clipPath>
</defs>
</svg>
