<svg width="320" height="172" viewBox="0 0 320 172" fill="none" xmlns="http://www.w3.org/2000/svg">
<path d="M0 140.611V15.0279H8.95895V6.06897H98.6535V32.9721H26.9031V59.8752H71.7504V86.7783H26.9031V140.611H0Z" fill="#5500F1"/>
<path d="M107.639 140.611V6.06897H197.334V15.0279H206.292V77.8194H197.334V86.7783H134.542V140.611H107.639ZM179.389 59.8752V32.9721H134.542V59.8752H179.389Z" fill="#5500F1"/>
<path d="M224.236 140.611V131.652H215.277V104.722H242.181V113.681H287.028V86.7783H224.236V77.8194H215.277V15.0279H224.236V6.06897H304.972V15.0279H313.931V41.931H287.028V32.9721H242.181V59.8752H304.972V68.8342H313.931V131.626H304.972V140.585H224.236V140.611Z" fill="#5500F1"/>
<path d="M6.04272 134.542V8.95895H15.0017V0H104.696V26.9031H32.9721V53.8062H77.8194V80.7094H32.9721V134.542H6.04272Z" fill="#9776FF"/>
<path d="M113.681 134.542V0H203.376V8.95895H212.335V71.7504H203.376V80.7094H140.585V134.542H113.681ZM185.458 53.8325V26.9031H140.611V53.8062H185.458V53.8325Z" fill="#9776FF"/>
<path d="M230.305 134.542V125.583H221.346V98.6798H248.25V107.639H293.097V80.7356H230.305V71.7767H221.346V8.98522H230.305V0H311.041V8.95895H320V35.8621H293.097V26.9031H248.25V53.8062H311.041V62.7915H320V125.583H311.041V134.542H230.305Z" fill="#9776FF"/>
<path d="M44.322 165.911H41.0116V169.143H38.0166V165.911H34.6799V163.074H37.9903V159.842H40.9853V163.074H44.2957V165.911H44.322Z" fill="#5500F1"/>
<path d="M279.619 164.335H285.32V167.172H279.619V164.335Z" fill="#5500F1"/>
<path d="M93.4779 160.683V163.599H99.3104V166.489H93.4779V171.034H89.7209V157.793H100.099V160.683H93.4779Z" fill="#5500F1"/>
<path d="M115.1 157.793H118.857V171.034H115.1V157.793Z" fill="#5500F1"/>
<path d="M147.363 157.793V171.034H144.289L138.456 163.967V171.034H134.778V157.793H137.852L143.685 164.86V157.793H147.363Z" fill="#5500F1"/>
<path d="M163.258 157.793H169.511C170.956 157.793 172.243 158.056 173.373 158.608C174.502 159.159 175.369 159.921 175.974 160.92C176.604 161.918 176.893 163.074 176.893 164.414C176.893 165.754 176.578 166.91 175.974 167.908C175.343 168.906 174.476 169.668 173.373 170.22C172.243 170.772 170.956 171.034 169.511 171.034H163.258V157.793ZM169.353 168.039C170.483 168.039 171.402 167.724 172.085 167.067C172.768 166.437 173.11 165.544 173.11 164.388C173.11 163.258 172.768 162.365 172.085 161.708C171.402 161.077 170.483 160.736 169.353 160.736H166.989V167.987H169.353V168.039Z" fill="#5500F1"/>
<path d="M202.746 168.144V171.034H192.105V157.793H202.483V160.683H195.81V162.916H201.695V165.727H195.81V168.144H202.746Z" fill="#5500F1"/>
<path d="M223.868 167.514H221.819V171.034H218.062V157.793H224.105C225.313 157.793 226.338 158.003 227.231 158.397C228.125 158.791 228.808 159.369 229.281 160.105C229.754 160.841 229.99 161.708 229.99 162.706C229.99 163.652 229.754 164.493 229.307 165.202C228.86 165.911 228.23 166.463 227.389 166.883L230.253 171.034H226.233L223.868 167.514ZM225.629 161.261C225.235 160.92 224.657 160.762 223.895 160.762H221.819V164.65H223.895C224.657 164.65 225.235 164.493 225.629 164.151C226.023 163.81 226.207 163.337 226.207 162.732C226.233 162.076 226.023 161.603 225.629 161.261Z" fill="#5500F1"/>
</svg>
