<svg width="40" height="40" viewBox="0 0 40 40" fill="none" xmlns="http://www.w3.org/2000/svg">
<path d="M33.5546 14.0003C33.9746 14.0003 34.3151 13.6598 34.3151 13.2398C34.3151 12.8198 33.9746 12.4794 33.5546 12.4794C33.1346 12.4794 32.7942 12.8198 32.7942 13.2398C32.7942 13.6598 33.1346 14.0003 33.5546 14.0003Z" fill="white"/>
<path d="M33.5546 27.101C33.9746 27.101 34.3151 26.7605 34.3151 26.3405C34.3151 25.9206 33.9746 25.5801 33.5546 25.5801C33.1346 25.5801 32.7942 25.9206 32.7942 26.3405C32.7942 26.7605 33.1346 27.101 33.5546 27.101Z" fill="white"/>
<path d="M20.4539 14.0003C20.8739 14.0003 21.2143 13.6598 21.2143 13.2398C21.2143 12.8198 20.8739 12.4794 20.4539 12.4794C20.0339 12.4794 19.6934 12.8198 19.6934 13.2398C19.6934 13.6598 20.0339 14.0003 20.4539 14.0003Z" fill="white"/>
<path d="M20.4539 27.101C20.8739 27.101 21.2143 26.7605 21.2143 26.3405C21.2143 25.9206 20.8739 25.5801 20.4539 25.5801C20.0339 25.5801 19.6934 25.9206 19.6934 26.3405C19.6934 26.7605 20.0339 27.101 20.4539 27.101Z" fill="white"/>
<path d="M13.0126 9.13279C13.3429 9.13279 13.6107 8.86506 13.6107 8.53475C13.6107 8.20444 13.3429 7.9367 13.0126 7.9367H12.1831V6.61014H13.0126C13.3429 6.61014 13.6107 6.34241 13.6107 6.0121C13.6107 5.68178 13.3429 5.41405 13.0126 5.41405H12.1831V5.27374C12.183 4.61858 11.6502 4.08569 10.9952 4.08569H6.98233C6.32733 4.08569 5.79452 4.61858 5.79452 5.27358V5.41389H4.96499C4.63468 5.41389 4.36694 5.68163 4.36694 6.01194C4.36694 6.34225 4.63468 6.60999 4.96499 6.60999H5.7946V7.93655H4.96499C4.63468 7.93655 4.36694 8.20428 4.36694 8.53459C4.36694 8.8649 4.63468 9.13264 4.96499 9.13264H5.7946V10.4592H4.96499C4.63468 10.4592 4.36694 10.7269 4.36694 11.0572C4.36694 11.3876 4.63468 11.6553 4.96499 11.6553H5.7946V12.9818H4.96499C4.63468 12.9818 4.36694 13.2496 4.36694 13.5799C4.36694 13.9102 4.63468 14.1779 4.96499 14.1779H5.7946V15.5045H4.96499C4.63468 15.5045 4.36694 15.7722 4.36694 16.1025C4.36694 16.4329 4.63468 16.7006 4.96499 16.7006H5.7946V18.0272H4.96499C4.63468 18.0272 4.36694 18.2949 4.36694 18.6252C4.36694 18.9555 4.63468 19.2232 4.96499 19.2232H5.7946V20.5497H4.96499C4.63468 20.5497 4.36694 20.8175 4.36694 21.1478C4.36694 21.4781 4.63468 21.7458 4.96499 21.7458H5.7946V23.0724H4.96499C4.63468 23.0724 4.36694 23.3401 4.36694 23.6704C4.36694 24.0007 4.63468 24.2685 4.96499 24.2685H5.7946V24.7216C5.7946 25.3766 6.32741 25.9094 6.98241 25.9094H10.9952C11.6502 25.9094 12.1831 25.3766 12.1831 24.7216V24.2685H13.0126C13.3429 24.2685 13.6107 24.0007 13.6107 23.6704C13.6107 23.3401 13.3429 23.0724 13.0126 23.0724H12.1831V21.7458H13.0126C13.3429 21.7458 13.6107 21.4781 13.6107 21.1478C13.6107 20.8175 13.3429 20.5497 13.0126 20.5497H12.1831V19.2234H13.0126C13.3429 19.2234 13.6107 18.9557 13.6107 18.6254C13.6107 18.295 13.3429 18.0273 13.0126 18.0273H12.1831V16.7007H13.0126C13.3429 16.7007 13.6107 16.433 13.6107 16.1027C13.6107 15.7724 13.3429 15.5047 13.0126 15.5047H12.1831V14.1781H13.0126C13.3429 14.1781 13.6107 13.9104 13.6107 13.5801C13.6107 13.2497 13.3429 12.982 13.0126 12.982H12.1831V11.6554H13.0126C13.3429 11.6554 13.6107 11.3877 13.6107 11.0574C13.6107 10.7271 13.3429 10.4594 13.0126 10.4594H12.1831V9.13279H13.0126ZM6.99069 24.7219L6.39264 24.7218L6.99069 24.7219ZM10.9869 24.7135H6.99069V5.28186H10.9869V24.7135Z" fill="white"/>
<path d="M37.6614 1.52845H33.5472V1.06689C33.5472 0.547201 33.1245 0.12439 32.6047 0.12439H22.6044C22.0847 0.12439 21.6619 0.547123 21.6619 1.06689V1.52845H19.7832V1.06689C19.7832 0.547201 19.3605 0.12439 18.8407 0.12439H16.4575C15.9378 0.12439 15.515 0.547123 15.515 1.06689V1.52845H10.1803C9.84998 1.52845 9.58225 1.79618 9.58225 2.1265C9.58225 2.45681 9.84998 2.72454 10.1803 2.72454H15.515V3.45016C15.515 3.96985 15.9377 4.39266 16.4575 4.39266H18.8407C19.3604 4.39266 19.7832 3.96993 19.7832 3.45016V2.72454H21.6619V3.45016C21.6619 3.96985 22.0846 4.39266 22.6044 4.39266H32.6047C33.1244 4.39266 33.5472 3.96993 33.5472 3.45016V2.72454H37.6614C38.2913 2.72454 38.8038 3.23704 38.8038 3.86696V37.5371C38.8038 38.1671 38.2913 38.6796 37.6614 38.6796H3.99124C3.36132 38.6796 2.84882 38.1671 2.84882 37.5371V36.8588H3.49929C4.03218 36.8588 4.46569 36.4253 4.46569 35.8924V30.2225C4.46569 29.6896 4.03218 29.2561 3.49929 29.2561H2.84882V3.86696C2.84882 3.23704 3.36132 2.72454 3.99124 2.72454H6.99069C7.321 2.72454 7.58874 2.45681 7.58874 2.1265C7.58874 1.79618 7.321 1.52845 6.99069 1.52845H3.99124C2.70179 1.52845 1.65273 2.57743 1.65273 3.86696V29.2561H0.966404C0.433515 29.2561 0 29.6896 0 30.2225V35.8924C0 36.4253 0.433515 36.8588 0.966404 36.8588H1.65281V37.5371C1.65281 38.8266 2.70179 39.8756 3.99132 39.8756H37.6615C38.9509 39.8756 40 38.8267 40 37.5371V3.86696C39.9999 2.57743 38.9509 1.52845 37.6614 1.52845ZM18.5872 3.19649H16.7111V1.32048H18.5872V3.19649ZM32.351 3.19649H22.858V1.32048H32.351V3.19649ZM1.19609 35.6626V30.4521H3.2696V35.6625C3.26906 35.6625 1.19664 35.6626 1.19609 35.6626Z" fill="white"/>
<path d="M27.0039 12.5559C23.0623 12.5559 19.8555 15.7627 19.8555 19.7043C19.8555 23.6458 23.0623 26.8525 27.0039 26.8525C30.9454 26.8525 34.1522 23.6458 34.1522 19.7043C34.1522 15.7627 30.9454 12.5559 27.0039 12.5559ZM27.0039 25.6564C23.7218 25.6564 21.0516 22.9863 21.0516 19.7043C21.0516 16.4222 23.7218 13.752 27.0039 13.752C30.286 13.752 32.9561 16.4222 32.9561 19.7043C32.9561 22.9863 30.286 25.6564 27.0039 25.6564Z" fill="white"/>
<path d="M32.0215 18.3445C31.4186 17.8197 30.2795 17.7217 28.5458 18.0469C28.8511 17.0895 29.3439 16.3077 29.6319 15.901C29.827 15.6258 29.8693 15.2743 29.745 14.9606C29.6207 14.647 29.3492 14.4197 29.0188 14.3527C27.2554 13.9951 26.1514 14.1042 25.6443 14.6868C25.1193 15.2898 25.0214 16.4288 25.3466 18.1624C24.3892 17.8572 23.6074 17.3645 23.2007 17.0762C22.9254 16.8813 22.5739 16.8391 22.2604 16.9632C21.9468 17.0874 21.7195 17.3589 21.6524 17.6895C21.2947 19.4531 21.4041 20.5569 21.9864 21.0639C22.3583 21.3876 22.9337 21.549 23.7265 21.549C24.2196 21.549 24.7977 21.4859 25.4622 21.3612C25.1569 22.3187 24.6641 23.1008 24.376 23.5076C24.1811 23.7828 24.1388 24.1343 24.263 24.448C24.3872 24.7615 24.6587 24.9888 24.9893 25.0559C25.663 25.1924 26.2402 25.2609 26.7249 25.2609C27.5089 25.2609 28.0503 25.0816 28.3636 24.7217C28.8886 24.1187 28.9867 22.9797 28.6614 21.246C29.6189 21.5514 30.4006 22.0441 30.8073 22.3323C30.9782 22.4533 31.1786 22.5155 31.3809 22.5155C31.5044 22.5155 31.6288 22.4923 31.7476 22.4452C32.0612 22.321 32.2885 22.0495 32.3556 21.719C32.7132 19.9555 32.604 18.8516 32.0215 18.3445ZM22.7723 20.1623C22.6913 20.0834 22.5321 19.5629 22.7673 18.229C23.286 18.5717 23.985 18.9622 24.8076 19.2448C24.7768 19.3923 24.7604 19.5451 24.7602 19.7016C24.7602 19.7024 24.7601 19.7034 24.7601 19.7042C24.7601 19.7042 24.7601 19.7042 24.7601 19.7043C24.7601 19.7043 24.7601 19.7043 24.7601 19.7044C24.7601 19.7477 24.7617 19.7906 24.7641 19.8333C24.7649 19.8479 24.7663 19.8623 24.7674 19.8768C24.7695 19.9048 24.772 19.9327 24.7751 19.9604C24.7771 19.9777 24.7793 19.9951 24.7818 20.0123C24.7852 20.0372 24.7891 20.0619 24.7933 20.0865C24.7964 20.1045 24.7994 20.1224 24.8029 20.1402C24.8079 20.1656 24.8137 20.1906 24.8196 20.2157C24.8227 20.2291 24.8251 20.2427 24.8285 20.2559C23.6187 20.439 22.9688 20.3334 22.7723 20.1623ZM27.4618 23.9356C27.3829 24.0168 26.8626 24.176 25.5285 23.9408C25.8714 23.422 26.2618 22.723 26.5444 21.9004C26.6661 21.9259 26.7914 21.9409 26.9194 21.9457C26.9255 21.9459 26.9315 21.946 26.9376 21.9462C26.9597 21.9468 26.9817 21.9478 27.0039 21.9478C27.0165 21.9478 27.0289 21.947 27.0416 21.9469C27.0507 21.9467 27.0599 21.9464 27.069 21.9462C27.1006 21.9452 27.1321 21.9437 27.1633 21.9416C27.1745 21.9408 27.1857 21.9399 27.1968 21.939C27.2253 21.9366 27.2538 21.9334 27.2821 21.9299C27.2956 21.9283 27.309 21.9266 27.3225 21.9248C27.3472 21.9212 27.3718 21.917 27.3963 21.9127C27.4127 21.9098 27.4292 21.9072 27.4454 21.9039C27.4657 21.8998 27.4858 21.8951 27.5059 21.8905C27.5224 21.8867 27.5391 21.8836 27.5554 21.8795C27.7386 23.0892 27.6329 23.7392 27.4618 23.9356ZM28.0514 19.7045C28.0514 19.7354 28.0494 19.7659 28.0468 19.7962C28.0458 19.8066 28.0447 19.8171 28.0435 19.8276C28.0411 19.8477 28.0379 19.8675 28.0343 19.8873C28.0298 19.9123 28.0244 19.9371 28.0181 19.9617C28.0158 19.9705 28.0137 19.9794 28.0113 19.988C28.0054 20.0086 27.999 20.029 27.9918 20.0491C27.9913 20.0507 27.9907 20.0523 27.9901 20.0539C27.9665 20.1196 27.9364 20.1833 27.8997 20.2439C27.8991 20.245 27.8986 20.2462 27.8979 20.2473C27.8306 20.3577 27.7438 20.4545 27.6418 20.5332C27.6411 20.5337 27.6405 20.534 27.6399 20.5345C27.556 20.5988 27.4648 20.6487 27.3689 20.6848C27.3559 20.6896 27.3431 20.6947 27.3299 20.6991C27.316 20.7037 27.3018 20.7076 27.2877 20.7116C27.2701 20.7165 27.2525 20.7212 27.2346 20.7252C27.2221 20.728 27.2095 20.7307 27.1968 20.733C27.1759 20.737 27.1547 20.7402 27.1333 20.7427C27.1227 20.7441 27.1122 20.7456 27.1016 20.7466C27.0693 20.7496 27.0368 20.7516 27.0039 20.7516C26.9729 20.7516 26.9422 20.7495 26.9119 20.7469C26.9015 20.7459 26.8911 20.7448 26.8807 20.7436C26.8604 20.7412 26.8404 20.7379 26.8206 20.7344C26.796 20.7299 26.7716 20.7246 26.7474 20.7184C26.7382 20.716 26.7289 20.7138 26.7199 20.7112C26.6995 20.7054 26.6793 20.6991 26.6593 20.692C26.6574 20.6913 26.6556 20.6905 26.6537 20.6899C26.5882 20.6663 26.5246 20.6362 26.4642 20.5997C26.4631 20.5991 26.462 20.5986 26.4609 20.598C26.3508 20.5309 26.2542 20.4444 26.1756 20.3428C26.1749 20.3419 26.1743 20.3408 26.1736 20.3398C26.1092 20.2559 26.0593 20.1646 26.0231 20.0686C26.0182 20.0558 26.0132 20.043 26.0089 20.0299C26.0043 20.0159 26.0004 20.0017 25.9964 19.9876C25.9914 19.9701 25.9868 19.9525 25.9827 19.9346C25.9798 19.922 25.9772 19.9095 25.9748 19.8967C25.9709 19.8759 25.9678 19.8548 25.9651 19.8335C25.9638 19.8228 25.9621 19.8122 25.9611 19.8015C25.9582 19.7694 25.9562 19.737 25.9562 19.7041C25.9562 19.704 25.9562 19.7039 25.9562 19.7037C25.9563 19.6731 25.9582 19.6426 25.961 19.6122C25.9619 19.6018 25.9629 19.5915 25.9642 19.5811C25.9665 19.5608 25.9699 19.5407 25.9734 19.5208C25.9779 19.4962 25.9832 19.4718 25.9894 19.4476C25.9918 19.4384 25.9939 19.4292 25.9964 19.4202C26.0023 19.3998 26.0086 19.3795 26.0157 19.3594C26.0164 19.3576 26.0171 19.3558 26.0177 19.354C26.0413 19.2884 26.0714 19.2248 26.108 19.1642C26.1086 19.1633 26.109 19.1622 26.1096 19.1612C26.177 19.0505 26.2641 18.9534 26.3664 18.8746C26.3668 18.8743 26.3674 18.8741 26.3678 18.8737C26.4517 18.8094 26.5429 18.7595 26.6388 18.7234C26.6518 18.7186 26.6646 18.7135 26.6778 18.7091C26.6917 18.7045 26.7059 18.7006 26.72 18.6966C26.7375 18.6917 26.7552 18.687 26.7731 18.683C26.7856 18.6802 26.7982 18.6775 26.8108 18.6752C26.8318 18.6713 26.8529 18.668 26.8743 18.6655C26.885 18.6641 26.8954 18.6626 26.9061 18.6616C26.9383 18.6586 26.9708 18.6566 27.0038 18.6566C27.0348 18.6566 27.0654 18.6587 27.0957 18.6613C27.1062 18.6623 27.1167 18.6634 27.1271 18.6646C27.1472 18.667 27.167 18.6702 27.1868 18.6737C27.2118 18.6783 27.2366 18.6837 27.2611 18.69C27.27 18.6923 27.2789 18.6944 27.2877 18.6969C27.3082 18.7027 27.3286 18.7091 27.3486 18.7162C27.3503 18.7169 27.3521 18.7175 27.3538 18.7181C27.4195 18.7417 27.4832 18.7719 27.5437 18.8084C27.5445 18.8089 27.5454 18.8092 27.5461 18.8097C27.6565 18.8769 27.7534 18.9635 27.8321 19.0654C27.8329 19.0663 27.8333 19.0673 27.834 19.0682C27.8983 19.1519 27.9481 19.2429 27.9843 19.3386C27.9892 19.3518 27.9944 19.3648 27.9989 19.3784C28.0034 19.3921 28.0072 19.4061 28.0112 19.4201C28.0162 19.4378 28.021 19.4557 28.025 19.4738C28.0279 19.4862 28.0304 19.4986 28.0328 19.511C28.0368 19.5322 28.0399 19.5535 28.0426 19.5751C28.0439 19.5855 28.0455 19.5959 28.0464 19.6063C28.0495 19.6386 28.0514 19.6712 28.0514 19.7042C28.0514 19.7043 28.0514 19.7044 28.0514 19.7045ZM27.4633 17.508C27.3415 17.4825 27.2161 17.4673 27.088 17.4627C27.0822 17.4624 27.0764 17.4624 27.0706 17.4622C27.0483 17.4616 27.0262 17.4605 27.0039 17.4605C26.9912 17.4605 26.9787 17.4613 26.9661 17.4614C26.9569 17.4616 26.9478 17.4619 26.9386 17.4621C26.9073 17.463 26.8761 17.4645 26.845 17.4667C26.8335 17.4675 26.8219 17.4684 26.8104 17.4694C26.7824 17.4718 26.7546 17.4748 26.7268 17.4782C26.7127 17.4799 26.6986 17.4816 26.6844 17.4836C26.6604 17.487 26.6367 17.4911 26.613 17.4952C26.5959 17.4982 26.5788 17.501 26.5618 17.5044C26.542 17.5084 26.5225 17.513 26.5029 17.5175C26.4861 17.5213 26.4689 17.5245 26.4521 17.5288C26.269 16.3191 26.3748 15.6692 26.5458 15.4727C26.594 15.4231 26.8072 15.3443 27.2705 15.3443C27.565 15.3443 27.9605 15.3762 28.4791 15.4677C28.1364 15.9864 27.7459 16.6854 27.4633 17.508ZM31.2405 21.1795C30.7219 20.8367 30.0229 20.4463 29.2002 20.1637C29.2312 20.0153 29.2477 19.8617 29.2477 19.7043C29.2477 19.7043 29.2477 19.7043 29.2477 19.7042C29.2477 19.7041 29.2477 19.7042 29.2477 19.7041C29.2477 19.7041 29.2477 19.7039 29.2477 19.7037C29.2477 19.6606 29.2461 19.6179 29.2437 19.5754C29.2429 19.5605 29.2414 19.5459 29.2404 19.531C29.2382 19.5034 29.2358 19.4758 29.2327 19.4484C29.2307 19.4309 29.2284 19.4133 29.226 19.3958C29.2226 19.3712 29.2187 19.3467 29.2145 19.3224C29.2114 19.3043 29.2083 19.2862 29.2048 19.2681C29.1998 19.2427 29.194 19.2177 29.1881 19.1926C29.185 19.1793 29.1826 19.1658 29.1793 19.1526C30.3883 18.9694 31.0382 19.0751 31.2357 19.2464C31.3168 19.3259 31.4757 19.8466 31.2405 21.1795Z" fill="white"/>
<path d="M9.59053 28.5459C8.72351 27.679 7.31288 27.679 6.44585 28.546C5.5789 29.413 5.5789 30.8237 6.44585 31.6907C6.87945 32.1243 7.44866 32.3409 8.01827 32.3409C8.58757 32.3409 9.15718 32.1242 9.59061 31.6907C9.59061 31.6907 9.59061 31.6907 9.59069 31.6907C10.4576 30.8238 10.4576 29.413 9.59053 28.5459ZM8.74483 30.8449C8.34413 31.2456 7.69226 31.2454 7.29163 30.8449C6.89101 30.4443 6.89101 29.7925 7.29163 29.3918C7.49194 29.1914 7.75499 29.0912 8.01819 29.0912C8.28124 29.0912 8.54444 29.1914 8.74475 29.3917C9.14538 29.7925 9.14538 30.4443 8.74483 30.8449Z" fill="white"/>
<path d="M9.59062 33.8215C8.72351 32.9546 7.31288 32.9547 6.44585 33.8215C5.5789 34.6885 5.5789 36.0992 6.44585 36.9663C6.87945 37.3998 7.44866 37.6164 8.01827 37.6164C8.58757 37.6164 9.15718 37.3997 9.59062 36.9663L9.59069 36.9662C10.4576 36.0992 10.4576 34.6885 9.59062 33.8215ZM8.74483 36.1205C8.34413 36.5212 7.69226 36.5211 7.29163 36.1206C6.89101 35.7199 6.89101 35.068 7.29163 34.6674C7.49195 34.467 7.75507 34.3668 8.0182 34.3668C8.28132 34.3668 8.54444 34.467 8.74476 34.6674C9.14538 35.068 9.14538 35.7199 8.74483 36.1205Z" fill="white"/>
<path d="M14.9612 28.5458C14.0942 27.679 12.6835 27.6788 11.8165 28.5459C10.9495 29.4129 10.9495 30.8236 11.8165 31.6907C12.25 32.1241 12.8194 32.3409 13.3889 32.3409C13.9583 32.3409 14.5278 32.1241 14.9613 31.6907C15.8282 30.8237 15.8282 29.4129 14.9612 28.5458ZM14.1154 30.8448C13.7148 31.2455 13.0629 31.2455 12.6622 30.8448C12.2616 30.4443 12.2616 29.7924 12.6622 29.3917C12.8625 29.1913 13.1257 29.0911 13.3888 29.0911C13.6519 29.0911 13.915 29.1913 14.1154 29.3916C14.5161 29.7924 14.5161 30.4443 14.1154 30.8448Z" fill="white"/>
<path d="M14.9613 33.8215C14.0942 32.9547 12.6835 32.9547 11.8165 33.8215C10.9495 34.6885 10.9495 36.0992 11.8165 36.9663C12.25 37.3997 12.8194 37.6165 13.3889 37.6165C13.9582 37.6165 14.5278 37.3997 14.9613 36.9663C14.9613 36.9662 14.9613 36.9662 14.9613 36.9662C15.8282 36.0992 15.8282 34.6885 14.9613 33.8215ZM14.1154 36.1205C13.7148 36.5212 13.0629 36.5212 12.6622 36.1206C12.2616 35.7199 12.2616 35.068 12.6622 34.6674C12.8625 34.467 13.1257 34.3669 13.3888 34.3669C13.6519 34.3669 13.915 34.467 14.1154 34.6674C14.5161 35.068 14.5161 35.7199 14.1154 36.1205Z" fill="white"/>
<path d="M21.2589 7.2389C20.4032 6.38336 19.0115 6.38351 18.1561 7.23882C17.7418 7.65327 17.5136 8.20413 17.5136 8.79022C17.5136 9.37624 17.7418 9.92709 18.1561 10.3415C18.5706 10.7559 19.1214 10.984 19.7075 10.984C20.2936 10.984 20.8444 10.7558 21.2589 10.3415C22.1142 9.48616 22.1142 8.09429 21.2589 7.2389ZM20.4129 9.49561C20.0239 9.88475 19.3907 9.88467 19.002 9.49561C18.6129 9.10663 18.6129 8.47358 19.002 8.08468C19.1964 7.89015 19.4519 7.79288 19.7075 7.79288C19.963 7.79288 20.2186 7.89015 20.413 8.08468C20.802 8.47358 20.802 9.10663 20.4129 9.49561Z" fill="white"/>
<path d="M28.5553 7.23869C28.1408 6.82432 27.5899 6.59619 27.0039 6.59619C26.4178 6.59619 25.8669 6.82439 25.4525 7.23869C24.5972 8.09415 24.5972 9.48595 25.4525 10.3413C25.8669 10.7557 26.4178 10.9838 27.0039 10.9838C27.5899 10.9838 28.1408 10.7557 28.5553 10.3413C29.4106 9.48595 29.4106 8.09408 28.5553 7.23869ZM27.7095 9.4954C27.521 9.68384 27.2705 9.78766 27.0039 9.78766C26.7375 9.78766 26.4868 9.68391 26.2985 9.4954C25.9094 9.10649 25.9094 8.47345 26.2985 8.08439C26.4868 7.89595 26.7375 7.7922 27.0039 7.7922C27.2705 7.7922 27.521 7.89603 27.7095 8.08439C28.0985 8.47345 28.0985 9.10649 27.7095 9.4954Z" fill="white"/>
<path d="M35.8517 7.23865C34.9961 6.38326 33.6045 6.3831 32.749 7.23865C31.8936 8.09411 31.8936 9.4859 32.749 10.3413C33.1635 10.7557 33.7143 10.9838 34.3004 10.9838C34.8864 10.9838 35.4373 10.7556 35.8517 10.3413C36.266 9.92692 36.4942 9.37606 36.4942 8.79005C36.4942 8.20395 36.266 7.6531 35.8517 7.23865ZM35.0058 9.49551C34.617 9.88457 33.9838 9.88457 33.5949 9.49551C33.2058 9.10653 33.2058 8.47348 33.5949 8.08458C33.7893 7.89005 34.0448 7.79278 34.3003 7.79278C34.5559 7.79278 34.8114 7.89005 35.0059 8.08458C35.3949 8.47348 35.3949 9.10653 35.0058 9.49551Z" fill="white"/>
<path d="M36.3545 28.7714H17.6532C17.3229 28.7714 17.0551 29.0391 17.0551 29.3694C17.0551 29.6997 17.3229 29.9675 17.6532 29.9675H36.3545C36.6849 29.9675 36.9526 29.6997 36.9526 29.3694C36.9526 29.0391 36.6849 28.7714 36.3545 28.7714Z" fill="white"/>
<path d="M36.3545 32.1582H17.6532C17.3229 32.1582 17.0551 32.4259 17.0551 32.7562C17.0551 33.0866 17.3229 33.3543 17.6532 33.3543H36.3545C36.6849 33.3543 36.9526 33.0866 36.9526 32.7562C36.9526 32.4259 36.6849 32.1582 36.3545 32.1582Z" fill="white"/>
<path d="M20.0304 35.5448H17.6532C17.3229 35.5448 17.0551 35.8125 17.0551 36.1428C17.0551 36.4732 17.3229 36.7409 17.6532 36.7409H20.0304C20.3607 36.7409 20.6285 36.4732 20.6285 36.1428C20.6285 35.8125 20.3607 35.5448 20.0304 35.5448Z" fill="white"/>
<path d="M36.3545 35.5448H23.1896C22.8593 35.5448 22.5916 35.8125 22.5916 36.1428C22.5916 36.4732 22.8593 36.7409 23.1896 36.7409H36.3546C36.6849 36.7409 36.9527 36.4732 36.9527 36.1428C36.9526 35.8125 36.6849 35.5448 36.3545 35.5448Z" fill="white"/>
</svg>
