<svg width="32" height="32" viewBox="0 0 32 32" fill="none" xmlns="http://www.w3.org/2000/svg">
<g clip-path="url(#clip0)">
<path d="M5.72013 3.51642H5.71256C4.55513 3.53336 3.61375 4.48923 3.61375 5.64723V8.69223H0.471C0.210875 8.69223 0 8.90311 0 9.16323C0 9.42336 0.210875 9.63423 0.471 9.63423H3.61381V12.1106H0.471C0.210875 12.1106 0 12.3215 0 12.5816C0 12.8417 0.210875 13.0526 0.471 13.0526H3.61381V15.5289H0.471C0.210875 15.529 0 15.7399 0 16C0 16.2601 0.210875 16.471 0.471 16.471H3.61381V18.9473H0.471C0.210875 18.9473 0 19.1582 0 19.4183C0 19.6784 0.210875 19.8893 0.471 19.8893H3.61381V22.3657H0.471C0.210875 22.3657 0 22.5765 0 22.8367C0 23.0968 0.210875 23.3077 0.471 23.3077H3.61381V24.9183C3.61381 25.1783 3.82481 25.3893 4.08481 25.3893C4.34481 25.3893 4.55581 25.1783 4.55581 24.9183V5.64729C4.55581 5.00104 5.08081 4.46792 5.72706 4.45786C5.98706 4.45411 6.19494 4.24054 6.19056 3.97992C6.18675 3.72242 5.977 3.51642 5.72013 3.51642Z" fill="black"/>
<path d="M25.6355 27.3468H5.74525C5.25981 27.3468 4.82775 27.0567 4.64375 26.6076C4.54513 26.3665 4.27069 26.2515 4.02956 26.3501C3.78838 26.4487 3.6735 26.7238 3.77206 26.9643C4.10113 27.7688 4.8755 28.2887 5.74525 28.2887H8.69231V31.5289C8.69231 31.789 8.90319 31.9999 9.16331 31.9999C9.42344 31.9999 9.63431 31.789 9.63431 31.5289V28.2887H12.1107V31.5289C12.1107 31.789 12.3216 31.9999 12.5817 31.9999C12.8418 31.9999 13.0527 31.789 13.0527 31.5289V28.2887H15.529V31.5289C15.529 31.789 15.7399 31.9999 16 31.9999C16.2601 31.9999 16.471 31.789 16.471 31.5289V28.2887H18.9473V31.5289C18.9473 31.789 19.1582 31.9999 19.4183 31.9999C19.6784 31.9999 19.8893 31.789 19.8893 31.5289V28.2887H22.3657V31.5289C22.3657 31.789 22.5766 31.9999 22.8367 31.9999C23.0968 31.9999 23.3077 31.789 23.3077 31.5289V28.2887H25.6355C25.8955 28.2887 26.1065 28.0777 26.1065 27.8177C26.1065 27.5572 25.8955 27.3468 25.6355 27.3468Z" fill="black"/>
<path d="M22.388 8.00861H9.61193C8.78168 8.00861 8.10661 8.68373 8.10661 9.51392V22.2907C8.10661 23.121 8.78174 23.796 9.61193 23.796H22.3881C23.2184 23.796 23.8934 23.1209 23.8934 22.2907V9.51392C23.8934 8.68367 23.2183 8.00861 22.388 8.00861ZM9.04855 9.51392C9.04855 9.20304 9.30099 8.95061 9.61186 8.95061H19.3547V13.8698C18.5032 14.0538 17.8305 14.7264 17.6466 15.578H14.1756V13.1627C15.0655 12.9887 15.7387 12.203 15.7387 11.2629C15.7387 10.1959 14.8702 9.32742 13.8026 9.32742C12.8625 9.32742 12.0769 10.0006 11.9029 10.8899H9.04855V9.51392ZM19.8258 14.7615C20.5354 14.7615 21.1126 15.3393 21.1126 16.049C21.1126 16.7587 20.5355 17.3358 19.8258 17.3358C19.111 17.3358 18.5384 16.753 18.5384 16.049C18.5384 15.3437 19.1127 14.7615 19.8258 14.7615ZM13.8026 12.257C13.2579 12.257 12.8085 11.814 12.8085 11.2629C12.8085 10.7153 13.2544 10.2694 13.8026 10.2694C14.3509 10.2694 14.7967 10.7153 14.7967 11.2629C14.7967 11.8159 14.3465 12.257 13.8026 12.257ZM11.7685 19.9552C11.4953 19.8019 11.3107 19.5087 11.3107 19.1739C11.3107 18.6797 11.7132 18.2777 12.2075 18.2777C12.7017 18.2777 13.1037 18.6797 13.1037 19.1739C13.1036 19.8588 12.3629 20.2912 11.7685 19.9552ZM15.5779 22.854H12.4179V21.0002C13.3329 20.8959 14.0457 20.1165 14.0457 19.1739C14.0457 18.1603 13.2211 17.3357 12.2075 17.3357C11.1932 17.3357 10.3687 18.1603 10.3687 19.1739C10.3687 19.9275 10.8246 20.5775 11.4759 20.8607V22.854H9.61193C9.30105 22.854 9.04861 22.601 9.04861 22.2907V11.8319H11.9519C11.9559 11.8384 12.209 12.7988 13.2336 13.1137V16.049C13.2336 16.309 13.4446 16.52 13.7046 16.52H15.5779V22.854ZM22.9514 22.2907C22.9514 22.601 22.699 22.854 22.3881 22.854H16.5199V20.8172H22.9514V22.2907ZM22.9514 19.8752H16.5199V16.52H17.6466C17.8633 17.5235 18.7582 18.2778 19.8258 18.2778C21.0548 18.2778 22.0546 17.278 22.0546 16.049C22.0546 14.9814 21.3004 14.0865 20.2968 13.8698C20.2968 13.8698 20.2967 13.8698 20.2967 13.8698V8.95061H22.388C22.6989 8.95061 22.9514 9.20304 22.9514 9.51392V19.8752H22.9514Z" fill="black"/>
<path d="M31.529 13.0527C31.7891 13.0527 32 12.8418 32 12.5817C32 12.3216 31.7891 12.1107 31.529 12.1107H28.3862V9.63431H31.529C31.7891 9.63431 32 9.42344 32 9.16331C32 8.90319 31.7891 8.69231 31.529 8.69231H28.3862V5.64731C28.3862 4.47231 27.4304 3.51588 26.2548 3.51588H23.3077V0.471C23.3077 0.210875 23.0968 0 22.8367 0C22.5766 0 22.3657 0.210875 22.3657 0.471V3.51581H19.8893V0.471C19.8893 0.210875 19.6784 0 19.4183 0C19.1582 0 18.9473 0.210875 18.9473 0.471V3.51581H16.471V0.471C16.471 0.210875 16.2601 0 16 0C15.7399 0 15.529 0.210875 15.529 0.471V3.51581H13.0527V0.471C13.0527 0.210875 12.8418 0 12.5817 0C12.3216 0 12.1107 0.210875 12.1107 0.471V3.51581H9.63432V0.471C9.63432 0.210875 9.42344 0 9.16332 0C8.90319 0 8.69232 0.210875 8.69232 0.471V3.51581H7.60419C7.34357 3.51581 7.13319 3.72681 7.13319 3.98681C7.13319 4.24681 7.34357 4.45781 7.60419 4.45781C10.0715 4.45781 24.2801 4.45781 26.2548 4.45781C26.911 4.45781 27.4442 4.99163 27.4442 5.64725V26.1574C27.4442 26.4858 27.3136 26.7917 27.0756 27.0184C26.8872 27.198 26.8796 27.4963 27.0593 27.6841C27.1522 27.7814 27.2759 27.8304 27.4003 27.8304C27.5171 27.8304 27.6339 27.7871 27.7256 27.7004C28.1514 27.2941 28.3863 26.7458 28.3863 26.1574V23.3077H31.5291C31.7892 23.3077 32.0001 23.0968 32.0001 22.8367C32.0001 22.5766 31.7892 22.3657 31.5291 22.3657H28.3863V19.8893H31.5291C31.7892 19.8893 32.0001 19.6784 32.0001 19.4183C32.0001 19.1582 31.7892 18.9473 31.5291 18.9473H28.3863V16.471H31.5291C31.7892 16.471 32.0001 16.2601 32.0001 16C32.0001 15.7399 31.7892 15.529 31.5291 15.529H28.3863V13.0527H31.529Z" fill="black"/>
</g>
<defs>
<clipPath id="clip0">
<rect width="32" height="32" fill="white"/>
</clipPath>
</defs>
</svg>
