<svg width="40" height="40" viewBox="0 0 40 40" fill="none" xmlns="http://www.w3.org/2000/svg">
<path d="M37.9687 19.6094C38.1138 19.6094 38.2529 19.5518 38.3554 19.4492C38.458 19.3466 38.5156 19.2075 38.5156 19.0625V7.55969C38.5156 7.41465 38.458 7.27555 38.3554 7.17299C38.2529 7.07043 38.1138 7.01282 37.9687 7.01282H2.03125C1.88621 7.01282 1.74711 7.07043 1.64455 7.17299C1.54199 7.27555 1.48438 7.41465 1.48438 7.55969V19.0625C1.48438 19.2075 1.54199 19.3466 1.64455 19.4492C1.74711 19.5518 1.88621 19.6094 2.03125 19.6094H3.04688V22.2656H2.03125C1.95942 22.2656 1.88829 22.2797 1.82192 22.3072C1.75555 22.3346 1.69525 22.3749 1.64446 22.4257C1.59367 22.4765 1.55339 22.5368 1.52592 22.6032C1.49845 22.6695 1.48433 22.7407 1.48438 22.8125V26.9128C1.48438 27.0579 1.54199 27.197 1.64455 27.2995C1.74711 27.4021 1.88621 27.4597 2.03125 27.4597H4.25V29.6638C4.25 29.6678 4.25 29.6719 4.25 29.6759V32.4403C4.25003 32.5664 4.29359 32.6886 4.3733 32.7862C4.45302 32.8839 4.564 32.951 4.6875 32.9763C4.72412 32.9837 4.76139 32.9874 4.79875 32.9875H35.205C35.2424 32.9874 35.2796 32.9837 35.3162 32.9763C35.4397 32.951 35.5507 32.8839 35.6304 32.7862C35.7102 32.6886 35.7537 32.5664 35.7537 32.4403V29.6759C35.7537 29.6719 35.7537 29.6678 35.7537 29.6638V27.4597H37.9725C38.1175 27.4597 38.2566 27.4021 38.3592 27.2995C38.4618 27.197 38.5194 27.0579 38.5194 26.9128V22.8125C38.5194 22.7407 38.5053 22.6695 38.4778 22.6032C38.4504 22.5368 38.4101 22.4765 38.3593 22.4257C38.3085 22.3749 38.2482 22.3346 38.1818 22.3072C38.1155 22.2797 38.0443 22.2656 37.9725 22.2656H36.9569V19.6094H37.9687ZM34.6562 31.8938H31.95V29.675C31.95 29.53 31.8924 29.3909 31.7898 29.2883C31.6873 29.1857 31.5482 29.1281 31.4031 29.1281C31.2581 29.1281 31.119 29.1857 31.0164 29.2883C30.9139 29.3909 30.8562 29.53 30.8562 29.675V31.8938H28.1491V29.675C28.1491 29.53 28.0914 29.3909 27.9889 29.2883C27.8863 29.1857 27.7472 29.1281 27.6022 29.1281C27.4571 29.1281 27.318 29.1857 27.2155 29.2883C27.1129 29.3909 27.0553 29.53 27.0553 29.675V31.8938H24.3478V29.675C24.3478 29.53 24.2902 29.3909 24.1876 29.2883C24.0851 29.1857 23.946 29.1281 23.8009 29.1281C23.6559 29.1281 23.5168 29.1857 23.4142 29.2883C23.3117 29.3909 23.2541 29.53 23.2541 29.675V31.8938H20.5469V29.675C20.5469 29.53 20.4893 29.3909 20.3867 29.2883C20.2841 29.1857 20.145 29.1281 20 29.1281C19.855 29.1281 19.7159 29.1857 19.6133 29.2883C19.5107 29.3909 19.4531 29.53 19.4531 29.675V31.8938H16.7459V29.675C16.7459 29.53 16.6883 29.3909 16.5858 29.2883C16.4832 29.1857 16.3441 29.1281 16.1991 29.1281C16.054 29.1281 15.9149 29.1857 15.8124 29.2883C15.7098 29.3909 15.6522 29.53 15.6522 29.675V31.8938H12.9447V29.675C12.9447 29.53 12.8871 29.3909 12.7845 29.2883C12.682 29.1857 12.5429 29.1281 12.3978 29.1281C12.2528 29.1281 12.1137 29.1857 12.0111 29.2883C11.9086 29.3909 11.8509 29.53 11.8509 29.675V31.8938H9.14375V29.675C9.14375 29.53 9.08613 29.3909 8.98357 29.2883C8.88101 29.1857 8.74191 29.1281 8.59687 29.1281C8.45183 29.1281 8.31273 29.1857 8.21018 29.2883C8.10762 29.3909 8.05 29.53 8.05 29.675V31.8938H5.34375V27.4597H34.6562V31.8938ZM36.4062 23.3594H37.4219V26.3659H2.57812V23.3594H3.59375C3.73879 23.3594 3.87789 23.3018 3.98045 23.1992C4.08301 23.0966 4.14062 22.9575 4.14062 22.8125V19.0625C4.14067 18.9907 4.12655 18.9195 4.09908 18.8532C4.07161 18.7868 4.03133 18.7265 3.98054 18.6757C3.92975 18.6249 3.86945 18.5846 3.80308 18.5572C3.73671 18.5297 3.66558 18.5156 3.59375 18.5156H2.57812V8.10657H37.4219V18.5156H36.4062C36.3344 18.5156 36.2633 18.5297 36.1969 18.5572C36.1306 18.5846 36.0702 18.6249 36.0195 18.6757C35.9687 18.7265 35.9284 18.7868 35.9009 18.8532C35.8734 18.9195 35.8593 18.9907 35.8594 19.0625V22.8125C35.8594 22.9575 35.917 23.0966 36.0196 23.1992C36.1221 23.3018 36.2612 23.3594 36.4062 23.3594Z" fill="black"/>
<path d="M29.8719 23.5535H10.1281C9.98307 23.5535 9.84397 23.6111 9.74141 23.7136C9.63885 23.8162 9.58124 23.9553 9.58124 24.1003C9.58124 24.2454 9.63885 24.3845 9.74141 24.487C9.84397 24.5896 9.98307 24.6472 10.1281 24.6472H29.8719C30.0169 24.6472 30.156 24.5896 30.2586 24.487C30.3611 24.3845 30.4187 24.2454 30.4187 24.1003C30.4187 23.9553 30.3611 23.8162 30.2586 23.7136C30.156 23.6111 30.0169 23.5535 29.8719 23.5535Z" fill="black"/>
<path d="M17.7722 18.125H22.2278C22.3729 18.125 22.512 18.0674 22.6145 17.9648C22.7171 17.8623 22.7747 17.7232 22.7747 17.5781V11.3281C22.7747 11.1831 22.7171 11.044 22.6145 10.9414C22.512 10.8389 22.3729 10.7812 22.2278 10.7812H17.7722C17.6271 10.7812 17.488 10.8389 17.3855 10.9414C17.2829 11.044 17.2253 11.1831 17.2253 11.3281V17.5781C17.2253 17.7232 17.2829 17.8623 17.3855 17.9648C17.488 18.0674 17.6271 18.125 17.7722 18.125ZM18.3191 11.875H21.6809V17.0312H18.3191V11.875Z" fill="black"/>
<path d="M29.8719 10.7812H25.4163C25.2712 10.7812 25.1321 10.8389 25.0296 10.9414C24.927 11.044 24.8694 11.1831 24.8694 11.3281V17.5781C24.8694 17.7232 24.927 17.8623 25.0296 17.9648C25.1321 18.0674 25.2712 18.125 25.4163 18.125H29.8719C30.0169 18.125 30.156 18.0674 30.2586 17.9648C30.3611 17.8623 30.4188 17.7232 30.4188 17.5781V11.3281C30.4188 11.1831 30.3611 11.044 30.2586 10.9414C30.156 10.8389 30.0169 10.7812 29.8719 10.7812ZM29.325 17.0312H25.9631V11.875H29.325V17.0312Z" fill="black"/>
<path d="M10.1281 18.125H14.5837C14.7288 18.125 14.8679 18.0674 14.9704 17.9648C15.073 17.8623 15.1306 17.7232 15.1306 17.5781V11.3281C15.1306 11.1831 15.073 11.044 14.9704 10.9414C14.8679 10.8389 14.7288 10.7812 14.5837 10.7812H10.1281C9.98307 10.7812 9.84397 10.8389 9.74141 10.9414C9.63885 11.044 9.58124 11.1831 9.58124 11.3281V17.5781C9.58124 17.7232 9.63885 17.8623 9.74141 17.9648C9.84397 18.0674 9.98307 18.125 10.1281 18.125ZM10.675 11.875H14.0369V17.0312H10.675V11.875Z" fill="black"/>
<path d="M34.2188 12.9688C33.9252 12.9688 33.6382 13.0558 33.3941 13.2189C33.15 13.382 32.9597 13.6138 32.8474 13.8851C32.735 14.1563 32.7056 14.4548 32.7629 14.7427C32.8202 15.0307 32.9615 15.2951 33.1691 15.5027C33.3767 15.7103 33.6412 15.8517 33.9292 15.909C34.2171 15.9663 34.5156 15.9369 34.7868 15.8245C35.058 15.7122 35.2899 15.5219 35.453 15.2778C35.6161 15.0337 35.7031 14.7467 35.7031 14.4531C35.7026 14.0596 35.5461 13.6823 35.2678 13.4041C34.9896 13.1258 34.6123 12.9692 34.2188 12.9688ZM34.2188 14.8438C34.1415 14.8438 34.066 14.8208 34.0017 14.7779C33.9375 14.735 33.8874 14.674 33.8579 14.6026C33.8283 14.5312 33.8206 14.4527 33.8356 14.3769C33.8507 14.3011 33.8879 14.2315 33.9425 14.1769C33.9972 14.1223 34.0668 14.0851 34.1425 14.07C34.2183 14.0549 34.2969 14.0627 34.3682 14.0922C34.4396 14.1218 34.5006 14.1719 34.5435 14.2361C34.5865 14.3003 34.6094 14.3759 34.6094 14.4531C34.6092 14.5567 34.568 14.6559 34.4948 14.7292C34.4216 14.8024 34.3223 14.8436 34.2188 14.8438Z" fill="black"/>
<path d="M5.73312 12.9688C5.43954 12.9688 5.15255 13.0558 4.90845 13.2189C4.66435 13.382 4.47409 13.6138 4.36174 13.8851C4.24939 14.1563 4.22 14.4548 4.27727 14.7427C4.33455 15.0307 4.47592 15.2951 4.68351 15.5027C4.89111 15.7103 5.1556 15.8517 5.44354 15.909C5.73148 15.9663 6.02993 15.9369 6.30117 15.8245C6.5724 15.7122 6.80423 15.5219 6.96733 15.2778C7.13044 15.0337 7.2175 14.7467 7.2175 14.4531C7.217 14.0596 7.06045 13.6823 6.78219 13.4041C6.50392 13.1258 6.12665 12.9692 5.73312 12.9688ZM5.73312 14.8438C5.65586 14.8438 5.58034 14.8208 5.5161 14.7779C5.45187 14.735 5.4018 14.674 5.37223 14.6026C5.34267 14.5312 5.33493 14.4527 5.35 14.3769C5.36508 14.3011 5.40228 14.2315 5.45691 14.1769C5.51154 14.1223 5.58114 14.0851 5.65692 14.07C5.73269 14.0549 5.81123 14.0627 5.88261 14.0922C5.95399 14.1218 6.01499 14.1719 6.05792 14.2361C6.10084 14.3003 6.12375 14.3759 6.12375 14.4531C6.12366 14.5567 6.08248 14.656 6.00924 14.7293C5.93601 14.8025 5.8367 14.8437 5.73312 14.8438Z" fill="black"/>
</svg>
